<?xml version="1.0" encoding="UTF-8"?>
<svg id="Layer_1" data-name="Layer 1" xmlns="http://www.w3.org/2000/svg" viewBox="0 0 1080 477.75">
  <g>
    <g>
      <path d="M478.07,444.64c-1.31,3.19-3.09,7.23-3.98,8.08-1.89,2.2-7.18,5.88-9.84,6.7-4.45,1.53-9.06,1.98-13.69,1.76-2.02-.1-4.05-.34-6.06-.65-11.12-1.7-21.02-5.98-30.6-12.17-2.57-1.68-5.37-3.6-7.96-5.34-6.07-4.26-10.01-10.28-12.87-17.06-2.83-6.32-4.07-12.69-4.91-19.59-.3-2.77-.52-5.55-.63-8.31-.26-5.31-.19-10.61-.06-15.96.13-3.71.42-7.41.82-11.11.38-3.72.86-7.44,1.32-11.17.62-5.35,1.43-10.72,2.27-16.09.3-2.25.08-2.73-2.16-2.84l-.71-.04c-6.54-.32-37.56.77-42.8,1.27-4.93.28-9.66.31-14.36.79-8.97.73-17.93,1.68-26.65,2.86-2.69.17-5.14.51-7.59.88-1.59.09-2.67.85-3.24,2.49-5.24,15.32-10.93,30.42-15.91,45.97-.1.3-.19.59-.29.89-3.19,9.82-6.56,19.43-9.74,29.47-.49,1.62-.95,3.23-1.41,4.85-1.19,4.09-2.4,8.22-3.96,12.1-1.33,3.76-2.71,7.76-4.52,11.33-2.27,3.85-5.54,5.85-9.76,6.79-2.2.36-4.37.52-6.47.42-2.18-.11-4.32-.51-6.41-1.33-4.13-1.6-5.35-3.41-5.4-8.03-.2-3.67.74-7.18,1.43-10.7,0-.08.04-.19.04-.27,1.4-7.34,3.69-14.33,5.49-21.53,1.37-4.58,2.61-9.22,3.88-13.83,1.67-6.23,3.38-12.46,5.37-18.56,3.26-10.14,6.06-20.25,8.9-30.3.17-.73.36-1.18.53-2.35-3.79.88-7.33,1.8-10.64,2.89-2.87,1.09-5.74,2.15-8.39,3.25-1.96,1.02-3.73,1.84-4.75,3.73-1.03,1.42-2.81,2.02-4.39,2.11-1.48.17-2.93.21-4.35.14-5.4-.27-10.3-2.34-14.43-6.51-3.61-3.73-3.85-7.9-1.38-12.39,2.08-3.34,4.88-5.36,8.15-7.38,7.4-4.36,15.38-7.11,23.84-8.52,7.58-1.32,14.9-2.87,22.51-3.78,1.57-.3,2.43-1.05,3.03-2.69,6.79-19.58,14.25-38.92,20.82-58.49,3.44-11.03,6.65-21.83,8.94-33.3.37-1.87.27-3.73.15-5.79-.24-1.3-.56-1.89-1.33-1.92-.33-.02-.74.05-1.27.21-3.95,1.36-7.7,2.73-11.43,4.55-9.02,3.98-17.5,9.11-25.05,15.27-3.88,3.22-7.47,6.84-10.61,10.71-.03.03-.06.08-.09.13-2.07,3.12-3.9,6.42-5.25,9.93-1.41,3.07-1.44,6.54-1.04,9.98.18,1.24.73,2.47,1.71,3.55,3.26.95,6.59,1.56,9.94,1.72,4.69.23,9.45-.38,14.11-1.95,4.34-1.07,8.01-2.31,9.81-2.22,1.36.07,1.68.88.42,3.03-8.42,11.72-22.47,16.71-36.7,16-5.83-.29-11.7-1.53-17.22-3.67-30.08-10.01-55.93-38.83-64.03-74.51-10.56-51.16,8.74-101.11,22.14-148.81,1.47-4.82,6.6-20.22,2.95-20.4-.95-.05-2.48.92-4.84,3.37-19.33,22.93-36.16,49.31-52.31,75.32-18.3,29.62-36.65,59.37-50.75,91.95-4.51,9.91-10.88,27.28-21.32,27.2-3.1-.37-5.56-3.53-6.79-8.53-2.64-11.83.6-24.92,2.33-37.13,7-53.24,32.92-101.06,35.82-155.27v-.16c-.25-14.74-5.59-20.52-12.76-20.88-13.52-.67-33.55,18.07-37.95,32.47-3.88,9.34-1.8,20.3-1.87,30.1,0,6.07-2.6,8.97-6.55,8.78-2.26-.11-4.91-1.2-7.76-3.31-12.63-9.78-10.22-30.92-3.04-44.01C26.45,25.95,47.53,10.1,70.46,5.61c4.19-.75,8.11-1.05,11.77-.87,25,1.24,37.11,23.78,31.35,56.23-1.38,9.6-3.38,19.12-5.48,28.56-2.36,10.79-5.42,22.82-5.45,27.41,0,.93.04,1.91.62,2.33l.11.06c3.91-1.15,8.19-10.28,11.35-14.52,18.02-27.96,54.33-83.61,82.45-94.13.06-.02.11-.05.19-.05,2.63-.64,4.99-.85,7.06-.74,18.89.93,14.91,29.54,9.64,47.12-4.23,15.89-8.21,31.84-11.9,47.89-3.7,16.19-7.1,32.47-10.12,48.9-.92,4.22-1.75,8.36-2.47,12.45-6.2,35.41-3.67,66.44,22.24,94.03,1.06,1.2,2.15,2.37,3.3,3.5.21.2.45.3.67.31.44.02.86-.23,1.07-.71,1.01-2.19,2.24-4.32,3.54-6.44,5.18-8.13,12.22-14.53,19.54-20.51,13.15-10.66,27.81-18.19,43.48-23.92,6.25-2.07,12.38-3.32,18.95-3l1.72.08c4.77.24,9.58,1.35,13.85,4.02,2.02,1.14,3.73,2.53,5.1,4.16,2.84,3.34,4.32,7.62,4.59,12.63.24,4.08-.02,8.06-.49,12.05-.41,3.4-.99,6.81-1.63,10.25-2.15,9.84-5.44,19.49-8.3,29.13-3.79,12.46-8.09,24.93-12.55,37.22-.9,2.77-1.1,3.5.62,3.58.46.02,1.07,0,1.81-.05,10.52-1.04,21.36-.94,31.93-.83,6.18,0,28.24-.35,41.82.32,4.17.21,7.57.51,9.41.96.03,0,.08,0,.11.03,1.13.41,2.24.55,3.15.95.51.11.87.18,1.14.19.74.04.84-.34,1.26-1.71,1.22-5.84,2.73-11.48,4.19-17.34,3.05-12.04,6.73-23.85,10.83-35.51,1.85-5.4,3.84-10.71,5.87-16.02,4.17-10.37,24.73-69.6,28.89-79.81.63-1.17,1.25-2.15,1.83-3.33,3.57-6.96,6.69-9.21,10.34-9.03,1.64.08,3.41.66,5.36,1.52.37.18.77.37,1.18.55,3.01,1.49,12.64,3.47,12.64,6.94.03,3.75-10.39,36.62-15.63,53.58-1.56,5.01-2.67,8.64-2.91,9.69-3.72,14.54-8.08,28.67-12.47,42.78-1.95,6.22-3.73,12.47-5.43,18.72-4.88,17.98-8.81,36.23-12.12,54.57-.83,4.55-1.54,9.08-2.18,13.61-1.22,8.6-2.16,17.22-2.98,25.95,0,.16-.04.33-.05.49-.66,8.36-.62,16.91-.15,25.21.59,6.89,2.56,13.49,6.01,19.29,1.02,2.05,2.45,3.56,4.11,4.85,5.2,4.33,11,7.48,17.39,9.66,1.53.49,3.3.71,5.07.8,1.2.06,2.37.06,3.5-.02,4.08-.21,5.51-.36,9.01-1.55,1.19-.41,5.32-3.15,8.29-5.19.2-.15.42-.2.61-.19.76.04,1.4,1,1,1.93Z" style="fill: #787449;"/>
      <path d="M468.36,124.27c-.7-.14-1.38-.26-2.03-.29s-1.26.02-1.89.13c-2.54.53-4.84,1.65-6.92,2.96-8.58,4.99-16.74,10.76-24.87,16.15-.59.41-1.14,1.04-1.72,1.06-.44-.57-.06-.96-.1-1.37,1.18-3.41,2.18-7.02,3.19-10.42,3.35-10.22,6.72-20.46,9.28-30.83,1.15-3.99,1.91-8.16,2.47-12.34.39-3.97-.95-6.25-4.57-7.63-.61-.33-1.19-.3-1.59-.49-1.59-.52-3.16-.78-4.74-.86-1.39-.07-2.79,0-4.16.2-7.05.58-11.99,3.81-14.19,10.61-.33.58-.29,1.38-1.23,2.23-.23-.39-.42-.38-.44-.57-3.42-4.92-8.12-7.62-13.86-8.66-2.08-.4-4.2-.64-6.33-.75-4.5-.22-9.03.21-13.53,1.24-6.82,1.36-12.94,4.28-18.39,8.9-3.59,2.97-6.52,6.45-9.27,10.17-3.65,5.31-7.29,10.43-9.91,16.48-2.01,4.66-3.48,9.53-4.74,14.58-.06.02-.08.05-.14.07-2.68,1.12-5.37,2.47-8.25,3.8-8.27,3.58-16.99,6.05-25.94,7.93-1.16.27-2.32.51-3.5.59h-.22c-.46-.03-.75-.24-.61-.94.16-.4.14-.59.34-.8,1.66-5.41,2.73-10.99,3.8-16.54,1.37-7.36,1.33-14.83-.43-22.24-2.06-8.55-6.9-14.55-15.36-17.65-3.04-1.02-6.12-1.59-9.23-1.74-3.49-.17-7,.15-10.51.87-9.14,1.9-16.99,6.05-22.23,14.2-.73,1.03-1.69,1.5-3.08,1.57-5.28.12-9.89,2.13-14.03,5.7-1.6,1.48-2.97,3.11-4.23,4.87-1.26,1.77-2.39,3.65-3.47,5.59-6.22,11.96-8.83,24.89-8.21,39.43.19,2.2.51,4.56.99,7.02.7,3.61,1.74,7.38,3.33,11.07,2.45,5.15,5.48,9.73,10.37,12.97,5.64,3.67,11.53,5.6,17.63,5.9,4.77.24,9.67-.51,14.67-2.17,9.23-3.29,16.57-9.59,22.86-17.01,4.8-5.8,8.96-12.13,12.11-18.99.37-.8,1.13-1.23,2.1-1.48,3.89-.82,7.8-1.42,11.68-2.43,9.36-2.05,18.54-4.6,27.26-8.63-.81,5.4-1.03,10.82-.48,16.37.36,3.16.95,6.28,2.29,8.97,2.22,4.78,5.21,8.95,10.06,11.43,2.98,1.6,6.73,2.6,10.71,2.8,7.14.35,15.01-1.88,20.53-7.87,2.95-3.32,5.52-6.61,7.86-10.27,2.18-3.69,4.52-7.37,6.88-11.03.16-.43.32-1,1.1-1.26.02.6-.31,1.21-.5,1.81-1.14,4.21-2.26,8.22-3.43,12.4-.31,1.38-1.24,2.43-2.37,3.27-9.08,6.79-18.33,13.82-26.55,21.94-3.9,3.77-7.6,7.9-10.68,12.62-1.36,2.12-2.45,4.31-3.19,6.51-1.85,5.46-1.86,11.17.14,17.09.88,2.61,1.99,5.1,3.27,7.46v.03c1.82,3.42,3.99,6.65,6.37,9.88,2.79,3.77,6.27,6.35,10.7,8.07,2.44.91,5.06,1.48,7.79,1.61,4.47.22,9.11-.72,13.21-3.04,2.67-1.53,5.1-3.66,7.09-6.43,2.57-3.32,4.14-6.93,5.5-10.74,4.09-11.47,7.59-23.07,10.85-34.88,3.59-12.99,7.03-26.16,11.02-38.97q1.66-5.44,6.4-8.43c8.91-6.06,17.84-12.02,26.64-18.22,3.03-2.09,6.03-4.21,9-6.39,1.15-.68,2.07-1.51,2.8-2.54,1.09-1.61.64-3-1.18-3.69ZM273.12,159.54c-1.42,2.83-3.22,5.5-5.05,8.17-3.84,5.33-8.48,10.1-14.2,13.56-.7.4-1.12.63-1.48.61-.41-.02-.75-.39-1.33-1.21-1.73-2.65-2.89-5.74-3.84-8.63-2.37-7.36-3.76-14.59-3.76-22.24.03-2.76.05-5.52.49-8.88,1.67,2.05,2.96,3.78,4.41,5.25,5.84,5.78,12.69,9.13,20.3,11.09,1.38.31,2.57.43,3.77.57,1.19.33,1.2.52.68,1.73ZM282.51,129.92c-.73,4.34-1.5,8.7-2.66,12.93-.32,1-.67,2.02-.82,2.77-.22.67-.54,1.01-1.01.99-.19,0-.43-.1-.7-.28-2.06-.87-3.66-2.15-5.16-3.86-2.75-3.58-4.35-7.62-4.81-12.12l-.1-1.78c.14-8.44,1.46-16.81,6.17-24.15.52-.6,1.1-1.23,1.68-1.86.29-.34.6-.49.93-.47.27.01.54.14.8.37.84.75,1.67,1.5,2.15,2.46,1.9,3.04,2.69,6.36,3.49,9.65,1.05,5.24.58,10.41.06,15.36ZM375.02,240.27c-.06.02-.11.02-.19.02-.82-.04-1.03-.73-1.23-1.1-2.15-3.03-4.29-6.06-5.82-9.33-3.14-6.71-3.31-13.17.65-19.72,3.09-5.09,7.18-9.24,11.27-13.6,1.67-1.67,3.35-3.14,4.86-4.82.36-.2.52-.6,1.51-.66-3.8,16.54-7.02,33.07-11.04,49.21ZM396.4,125.55c-6.82,11.96-13.64,23.97-20.86,35.58-2.18,3.28-4.58,6.36-7.15,9.27-.32.34-.62.98-1.19.95-.11,0-.22-.04-.32-.07-.62-.19-.66-.96-.69-1.54-.51-2.35-.64-4.7-.58-7.05.35-7.72,1.13-15.05,2.67-22.6,2.16-10.55,5.73-20.78,10.73-30.29,2.11-4.08,5.27-7.61,8.43-10.73.95-1.05,2.25-1.91,3.62-2.55.84-.31,1.66-.49,2.45-.45,1.01.05,1.97.48,2.9,1.51,1.49,1.9,2.96,3.78,4.07,6.1.68,1.13,1.52,2.45,2.19,3.82,1.07,1.47,2.3,2.6,4.13,3.7-5.1,3.6-7.54,9.27-10.41,14.35Z" style="fill: #787449;"/>
      <path d="M713.2,130.68c-.33,1.21-1.05,2.43-1.78,3.44-5.47,7.79-11.13,15.6-17.21,23.2-4.6,5.78-9.18,11.54-13.38,17.48-2.22,2.9-4.43,5.57-7.25,7.89-3.44,2.64-7.93,3.98-12.35,3.76-3.3-.16-6.55-1.2-9.27-3.16-4.51-3.28-7.13-7.87-7.83-13.53-.7-9.02.37-17.93,2.63-26.73,2.8-10.19,5.36-20.56,8.94-30.6.86-2.01,1.31-4.42,1.99-6.6.17-.62.51-1.01.28-1.79-.05-.03-.08-.03-.13-.03-.71-.04-1.02.69-1.38.89-8.18,8.53-15.35,17.6-22.11,27.22-8.38,12.07-16.35,24.52-24.51,36.99-2.72,4.1-5.44,8.37-7.95,12.64-3.59,5.81-9,7.32-13.98,7.07-.82-.04-1.61-.13-2.36-.25-4.98-.9-7.53-4.12-7.43-9.44.04-1.28.1-2.59.19-3.84.41-6.16,1.48-12.22,3.11-18.18,2.02-8.18,4.17-16.3,6.45-24.38.33-1.19.66-2.34.99-3.5,1.91-6.63,3.91-13.22,6.01-19.81.68-2.1,1.35-4.2,2.06-6.29,1.18-3.41,2.56-7.03,3.93-10.46.89-2.01,2.18-3.66,4.08-4.55,4.12-2.15,8.22-3.15,12.39-2.94,1.55.08,3.1.32,4.69.75,1.11.27,2.21.63,3.34,1.07,1,.32,1.81.88,2.44,1.43,1.44,1.3,2.13,2.84,2.01,4.61-.19,3.35-1.22,6.36-2.21,9.37-2.2,6.42-3.99,13.22-6.4,19.44-.18.4-.36.61.04.79.38-.04.57-.44.74-.65,5.84-8.18,12.31-15.81,18.97-23.27,3.49-3.79,7.27-7.18,11.45-9.98,2.91-1.96,6.03-3.66,9.37-4.97,4.04-1.63,8.21-2.46,12.38-2.26,1.64.08,3.24.32,4.85.73,2.6.43,4.82,1.5,6.87,3.15,2.29,1.83,3.03,4.55,2.99,7.5.05,4.54-.89,9.11-2.01,13.51-1.93,7.58-4.71,14.63-7.26,21.86-2.71,7.82-5.42,15.64-7.92,23.65-1.86,5.62-2.91,11.39-3.59,17.34-.11,1.17-.25,2.36.02,3.53.05,0,.13.03.19.04.85.04,1.2-.51,1.71-.93,3.38-3.14,6.53-6.67,9.67-10.37,7-8.86,13.77-17.71,20.77-26.54,1.47-2.06,3.13-4.11,5.39-5.61,1.55-.88,3.07-1.76,4.82-1.87.19,0,.38,0,.55,0,1.8.09,2.62,1.19,2,3.21Z" style="fill: #787449;"/>
    </g>
    <g>
      <path d="M669.72,225.34c-1.02-3.6-2.65-6.63-4.91-8.99-2.23-2.35-5.05-4.05-8.49-5.04-1.86-.5-3.73-.79-5.61-.88-1.83-.09-3.69,0-5.59.3-5.65.92-10.46,3.14-14.43,7.32-4.69,4.8-8.97,10.13-12.89,15.84-1.18,1.66-2.38,3.33-3.71,5.36-.25-.97-.07-1.4-.1-1.78.73-3.19,1.49-6.4,2.2-9.76.59-2.62,1.19-5.19,1.38-7.97.3-1.6-.32-2.94-1.33-4.06-.94-.92-1.72-1.67-2.83-2-2.33-.91-4.63-1.43-6.92-1.54-3.79-.19-7.5.78-11.16,2.92-1.6.9-2.79,2.32-3.44,4.34-.45,1.4-.91,2.99-1.38,4.6-3.34,12.35-6.88,24.74-9.87,37.19-.21.32-.44.63-.62.98-5.6,8.77-11.12,17.76-16.69,26.5-3.01,5.1-6.21,10.19-10.17,14.55-.7.81-1.39,1.65-2.44,2.31-.29.26-.51.36-.7.35-.27-.01-.48-.3-.61-.88-.27-1.16-.49-2.32-.55-3.31-.59-7.46.46-14.79,2.07-21.98,1.29-6.74,3.48-13,4.77-19.77.57-2.76.98-5.55,1.92-8.35,1.7-5.63,3.4-11.2,4.9-16.81.8-2.39,1.56-5.01,2.34-7.59.46-1.62.71-3.41.62-5.38-.14-2.14-.93-3.87-2.83-5.14-1.67-1.04-3.49-1.73-5.59-1.83l-1.09-.05c-4.12-.2-8.14.53-11.58,3.28-1.57,1.26-2.58,2.91-3.57,4.74-.51.82-1.02,1.84-1.51,2.85-.36.69-.57,1.04-.87,1.02-.25-.01-.51-.24-.95-.73-.36-.4-.59-.77-.96-1.11-3.34-3.77-7.48-5.73-12.28-6.43-1.36-.18-2.69-.3-4.05-.36-4.23-.21-8.53.07-12.75.9-7.08,1.75-13.49,4.88-18.87,10.3-1.76,1.83-3.41,3.79-4.93,5.85-1.64,2.16-3.14,4.41-4.62,6.71-3.04,4.66-5.69,9.56-7.6,14.95-3.62,10.83-6.28,22.01-6.36,33.62-.06,2.4,0,4.78.33,7.09.31,2.12.78,4.19,1.5,6.19,2.57,7.12,6.75,12.79,14.04,14.96,1.94.61,3.86.96,5.77,1.05,2.32.11,4.6-.13,6.89-.56,4.52-.84,8.43-3.03,11.71-6.36,2.1-2.11,4-4.56,5.48-7,3.37-5.71,6.54-11.18,9.88-16.89,1.5-2.66,3-5.45,4.5-8.11.05,0,.11-.02.16-.02.11,0,.22.07.21.17-.06,2.4.08,4.92.04,7.49-.1,4.75.18,9.65,1.71,14.07,2.43,7.17,6.9,11.84,13.76,13.41,1.3.28,2.57.48,3.83.54,6.19.31,11.67-2.21,16.13-7.37,2.92-3.3,5.09-7.34,7.44-11.22,1.78-2.92,3.62-5.81,5.43-8.69-1.53,6.1-3.12,12.17-4.54,18.27-2.75,11.4-6,22.49-8.67,33.84-.21.97-.45,1.95-.66,2.92-1.27,5.76-2.59,11.54-3.78,17.3-.61,3-1.2,5.98-1.73,8.96-.43,2.6-.62,5.35-.66,7.92.2,3.73,2,5.97,5.15,6.98,1.77.63,3.56.97,5.33,1.06,3.08.15,6.09-.52,8.9-2.05,1.81-.65,3-2.12,4.01-3.74,1.69-2.68,3-5.51,3.92-8.5,1.59-5.17,3.14-10.39,4.6-15.65,1.76-6.31,3.41-12.65,4.96-19.02.17-.7.34-1.4.51-2.11,2.04-9.16,4.1-18.32,6.14-27.49.36-.64.32-1.41.84-2.01.03-.03.08-.02.11-.02.63.03.85.56,1.21.91,1.54,1.5,3.1,3,4.62,4.46,1.78,1.67,3.64,2.56,5.9,3.41,2.16.6,4.47.85,6.65.96l.71.04c9.54,0,17.69-3.55,24.74-9.63.43-.33.86-.72,1.26-1.09,7.85-7.32,13.55-16.49,17.95-26.57.37-.86.71-1.71,1.06-2.6,0-.03,0-.05.03-.11,3.91-9.92,6.42-20.53,8.16-31.27.26-1.49.48-3.01.58-4.51v-.03c.46-4.84.1-9.64-1.44-14.5ZM522.78,257.71c-5.8,11.14-11.59,22.11-17.58,32.88-2.84,4.89-5.7,9.75-9.32,13.89-.44.55-.72,1.39-1.3,1.36-.08,0-.16-.04-.27-.07-.95-.18-.6-1.18-.83-1.93-.92-2.91-.53-5.87-.3-8.84.35-9.85,1.43-19.58,4.04-29.17,1.98-7.39,4.66-14.63,7.95-21.49,1.99-3.84,4.54-7.34,7.49-10.48.35-.39.71-.59,1.06-1.04,1.88-1.46,3.31-2.19,4.61-2.12,1.5.07,2.81,1.18,4.42,3.42,1.2,1.7,2.23,3.61,3.24,5.71,1.22,2.33,2.29,4.62,5.26,5.81-4.38,3.42-6.35,7.86-8.47,12.1ZM633.14,275.97c-2.49,7.8-6.15,14.92-10.53,21.26-1.03,1.45-2.24,2.68-3.64,3.95-.34.31-.68.49-1.03.47-.33-.02-.7-.2-1.15-.55-3.65-2.94-6.78-6.51-9.22-10.92-.82-1.13-1.24-2.47-2.39-3.62-.77-.53-.46-1.14.08-1.55,2.41-2.89,4.24-6.13,6.09-9.37,4.82-8.56,9.27-17.28,13.93-25.79,3.46-6.91,7.7-13.23,13.08-18.65.35-.42.65-1.01,1.78-1.09.29,1.95.2,3.75.3,5.48-.52,13.8-3.26,27.36-7.3,40.38Z" style="fill: #787449;"/>
      <path d="M768.88,219.81c-.91-3.13-2.28-5.88-4.11-8.07-2.35-2.82-5.44-4.83-9.3-5.95-1.86-.47-3.73-.76-5.59-.85-.9-.04-1.8-.03-2.71,0-.96.03-1.92.15-2.91.29-5.65.92-10.46,3.14-14.43,7.32-4.69,4.77-8.97,10.13-12.86,15.87-1.2,1.63-2.37,3.27-3.73,5.31-.25-.97-.1-1.37-.1-1.75.73-3.19,1.46-6.38,2.2-9.78.59-2.59,1.18-5.16,1.38-7.94.3-1.6-.35-2.94-1.3-4.05-.96-.95-1.75-1.67-2.88-2.03-2.31-.88-4.6-1.4-6.87-1.51-3.79-.19-7.52.75-11.18,2.92-1.35.75-2.42,1.9-3.1,3.48-.12.27-.22.56-.32.86-.48,1.4-.94,2.99-1.4,4.6-2.11,7.77-4.29,15.55-6.35,23.35-1.65,6.23-3.24,12.49-4.7,18.79-1.41,6.35-2.95,12.64-4.54,18.9-1.9,7.48-3.83,14.92-5.62,22.4-1.35,5.67-2.85,11.28-4.3,16.87-1.07,3.99-2.12,7.98-3.13,11.98-.62,2.62-1.27,5.24-1.87,7.89-.6,2.73-1.2,5.49-1.8,8.22-1.36,6.03-2.67,12.05-3.71,18.07-.4,2.58-.62,5.35-.66,7.92.23,3.73,2,5.97,5.15,6.98,1.77.63,3.56,1,5.33,1.08,3.08.15,6.09-.52,8.93-2.05,1.78-.7,2.98-2.15,3.99-3.79,1.69-2.65,3-5.45,3.94-8.47,2.28-7.4,4.43-14.92,6.41-22.53,1.27-4.72,2.49-9.5,3.63-14.25.04-.19.07-.38.14-.57,1.97-8.97,4-17.97,6.03-26.95.33-.61.29-1.38.78-2.01h.14c.63.04.85.57,1.21.91,1.54,1.5,3.11,2.97,4.64,4.46,1.75,1.67,3.62,2.56,5.87,3.41,2.08.57,4.28.84,6.37.94.35.02.68.03,1.01.02,10.08.03,18.64-3.97,25.97-10.69,3.75-3.5,7.01-7.41,9.84-11.67,3.15-4.63,5.8-9.63,8.09-14.9,1.58-3.69,2.94-7.48,4.11-11.36,2.28-7.35,3.94-14.94,5.19-22.64.08-.43.15-.84.17-1.28.31-1.82.48-3.64.54-5.44.15-4.09-.31-8.19-1.6-12.32ZM732.31,270.46c-2.49,7.8-6.12,14.89-10.53,21.26-1.03,1.42-2.24,2.68-3.64,3.92-.34.34-.68.51-1.04.5-.33-.02-.7-.2-1.15-.55-3.65-2.94-6.78-6.51-9.22-10.92-.82-1.13-1.24-2.47-2.42-3.59-.76-.56-.43-1.17.11-1.58,2.41-2.89,4.24-6.16,6.07-9.4,4.85-8.53,9.3-17.25,13.95-25.76,3.48-6.91,7.7-13.23,13.08-18.65.35-.42.68-1.03,1.78-1.09.29,1.95.2,3.73.3,5.51-.52,13.8-3.24,27.33-7.29,40.35Z" style="fill: #787449;"/>
      <g>
        <path d="M875.17,220.58c-.64.73-1.25,1.5-1.86,2.26,1.33-.68,2.63-1.38,3.88-2.09-.69.68-1.38,1.38-2.02,2.09Z" style="fill: #787449;"/>
        <path d="M936.73,240.01c-.24-.07-.49-.11-.73-.12-.49-.02-.99.06-1.49.23-2.53.34-4.46,1.83-6.21,3.49-7.3,7.29-14.97,14.23-22.45,21.32-7.8,7.54-16.25,13.68-25.68,18.76-4.1,2.17-8.38,4.2-12.91,5.24-.58.14-1.13.16-1.62.14-1.69-.08-2.99-.97-4.22-2.56-.78-1.35-1.59-2.67-2.06-4.23-1.49-3.65-2.23-7.35-2.25-10.9-.2-3.73-.01-6.89.2-10.05.13-.92.4-1.51,1.33-1.46h.22c.49.06.98.09,1.47.11,4.88.24,9.83-.39,14.6-1.19,12.87-2.29,22.73-9.34,30.16-20.97,3.18-5.09,5.45-10.74,6.77-16.91.74-2.81.95-5.39.79-8.32-.29-5.1-2.67-8.9-6.33-11.84-3.09-2.78-6.81-3.75-10.68-4.52-.73-.17-1.43-.29-2.17-.38-1.19-.22-2.42-.34-3.64-.4-3.13-.15-6.29.1-9.43.65-3.91.68-7.6,1.81-11.12,3.36-.03,0-.06.02-.08.05-.5.22-1.01.44-1.51.69-1.96.94-3.87,2.02-5.73,3.21-2.54,1.68-4.93,3.5-7.18,5.49-3.54,3.16-6.75,6.69-9.68,10.62-.47.63-.94,1.27-1.38,1.9v.03c-.56.74-1.06,1.51-1.56,2.27-5.46,8.26-9.33,17.35-11.65,27.32-.18.84-.36,1.68-.53,2.51v.03c-.24.34-.47.71-.68,1.06-6.25,9.77-12.29,19.75-18.51,29.55-2.18,3.66-4.93,6.94-7.88,10.08-.46.55-1.06,1.59-1.85,1.55-.08,0-.16,0-.27-.04-.96-.54-.62-1.75-.88-2.72-.81-8.02.2-15.76,1.82-23.52,1.17-5.43,2.78-10.82,4.08-16.3.48-1.94.9-3.89,1.27-5.84.54-3.17,1.48-6.18,2.25-8.99.99-2.98,1.93-5.94,2.87-8.93.26-.92.55-1.83.85-2.77.52-1.75,1.05-3.5,1.57-5.31.76-2.61,1.54-5.2,1.73-7.98.13-1.47.05-2.7-.31-3.76-.52-1.67-1.72-2.84-3.78-3.68-2.03-.89-4.03-1.37-6.02-1.47-.25-.01-.49-.02-.74,0l-.33-.02c-3.47.07-6.82,1.33-10.02,3.6-1.03.85-1.9,1.9-2.75,3.12-.09.19-.21.37-.3.56-1.41,2.58-2.74,5.22-3.97,7.92-.3.61-.58,1.23-.86,1.84-1.63,3.74-3.08,7.55-4.28,11.48-.1.35-.23.7-.3,1.05v.05s0,.03,0,.05v.05s0,.03-.03.05c-1.02,3.42-1.91,7.04-2.74,10.58-.63,2.84-1.24,5.68-1.84,8.49-.69,3.41-1.11,6.89-1.33,10.37-.4,5.88-.26,11.85-.03,17.65.11,2.16.04,4.13.33,6.08.07,1.37.52,2.73.97,4.06.07.28.16.55.26.81,2.28,6.94,6.54,11.88,13.49,13.4,1.38.31,2.71.52,4.04.58,5.18.26,10.05-1.5,14.2-5.34,1.75-1.66,3.32-3.52,4.65-5.56,3.04-5.1,6.21-10.19,9.24-15.09,1.78-2.86,3.62-5.7,5.4-8.59.56,3.63,1.56,7.13,2.95,10.5,2.73,6.12,6.82,10.83,12.34,14.08,4.76,2.75,9.6,4.16,14.56,4.41,3.76.19,7.56-.28,11.43-1.35,7.75-1.99,14.7-5.53,20.84-10.8,11.38-9.08,22.21-18.74,32.82-28.79,4.33-4.19,8.53-8.35,12.45-13.07.7-.84,1.38-1.84,1.67-2.84.64-1.83.02-3.2-1.64-3.85ZM860.72,247c.77-2.8,1.86-5.62,3.18-8.45,2.51-5.5,5.56-10.79,9.29-15.55.03-.05.09-.1.12-.16.61-.76,1.22-1.52,1.86-2.26.64-.71,1.33-1.41,2.02-2.09.03-.03.06-.02.06-.05,2.07-2,4.37-3.83,6.85-5.43.34-.23.73-.43,1.28-.46.17-.16.37-.23.53-.22.33.02.61.3.77.94.04.77.27,1.73.5,2.51-.21,2.59-.27,4.93-.88,7.33-2,6.79-5.68,12.7-10.17,17.89-2.76,3.28-6.11,5.25-10.09,6.28-1.43.26-2.88.76-4.31,1.02-.3.07-.55.08-.71.07-.63-.03-.66-.44-.29-1.38Z" style="fill: #787449;"/>
      </g>
    </g>
  </g>
  <path d="M595.12,65.58h-.03c-.05.43-.12.87-.23,1.3-1.26,7.78-14.1,32.64-26.23,44.2-4.85,4.62-9.59,7.12-13.42,5.54-8.41-3.53-12.58-14.64-19.62-25.4-6.96-11.68-19.82-28.5-18.23-40.85,1.16-11.31,14.8-10.77,22.11-5.08,11.1,7.57,16.09,21.02,20.42,33.55l.46-3.23c4.1-9.44,8.26-18.5,16.19-23.46,10.72-6.9,21.1-.19,18.57,13.43Z" style="fill: #787449;"/>
  <g>
    <path d="M877.18,218.49c-1.25,1.47-2.55,2.91-3.88,4.34.61-.76,1.22-1.52,1.86-2.26.64-.71,1.33-1.41,2.02-2.09Z" style="fill: #787449;"/>
    <path d="M840.62,164.25c-1.28,3.82-8.38,13.63-15.74,20.56-5.65,5.32-11.45,8.94-14.9,6.78-3.47-2.19-5.22-6.54-7.08-11.55-.82-2.14-1.64-4.43-2.62-6.71-3.17-8.22-9.52-20.28-7.17-27.98,1.96-7.06,10.59-5.24,14.63-.83,6.23,6.02,7.94,15.12,9.33,23.58l.65-2.02c3.64-5.56,7.26-10.87,12.86-13.16,7.79-3.33,13.78,2.54,10.04,11.34Z" style="fill: #787449;"/>
  </g>
  <path d="M133.86,434.63c26.58-7.65,53.26-15.05,79.98-22.14l-.03.11-.13.51c-.58,2.24-1.21,4.5-1.87,6.9-1.4,5.07-2.86,10.32-3.97,16.17l-.26,1.3c-.61,2.95-1.4,6.71-1.62,11.12-20.56,6.39-41.06,13-61.4,19.86-22.63,6.78-33.61-25.98-10.71-33.84Z" style="fill: #787449;"/>
  <path d="M363.29,404.16c-22.7,5.85-45.35,11.89-67.95,18.17.71-2.12,1.38-4.19,2.09-6.26,1.48-4.46,2.98-8.9,4.43-13.36,1.42-4.49,2.96-9.01,4.52-13.49,18.91-4.48,37.84-8.79,56.82-12.88-.11,1.63-.21,3.24-.27,4.88v.27c-.17,7.12-.25,14.74.37,22.67Z" style="fill: #787449;"/>
  <path d="M534.67,344.97c-.04.19-.07.35-.11.54-1.48,6.7-3.02,13.65-4.28,20.75v.05c-27.34,5.21-54.57,10.99-81.73,17.17.81-7.56,1.86-16.11,3.31-24.87,27.52-5.03,55.12-9.57,82.81-13.64Z" style="fill: #787449;"/>
  <path d="M628.4,333.26c2.31-.21,4.64-.4,6.94-.59-.04.19-.1.4-.14.59l-.03.11v.14c-.32,1.43-.64,2.87-.96,4.3-.14.7-.32,1.43-.46,2.14-.73,3.24-1.47,6.57-2.16,9.92-6.46.8-12.9,1.66-19.34,2.6.98-3.72,1.9-7.53,2.83-11.36l.06-.19.04-.22c.03-.11.88-3.45,1.56-6.18,3.87-.44,7.77-.85,11.65-1.26Z" style="fill: #787449;"/>
  <path d="M1071.35,237.27c-.02,5.9-8.08,12.61-13,16.35-10.7,8.13-23.64,14.52-36.13,20.59-21.17,10.32-43.41,19.17-64.17,30.06-4.66,2.45-9.11,5.15-13.58,7.8-6.45,3.81-12.79,7.78-18.66,12.19-9.03,6.82-21.91,16.02-27.57,24.87-2.93,4.61-3.02,9.61-4.52,14.61-3.73,12.36-14.97,24.34-26.96,31.79-16.21,10.02-36.07,16.55-56.99,15.33-12.07-.71-24.55-4.14-33.07-11.94-5.73-5.23-8.81-12.49-8.63-19.39v-.14c.33-13.18,8.58-23.6,19.65-32.07.57-.41,1.11-.85,1.7-1.25.57-.41,1.13-.82,1.7-1.2.59-.41,1.19-.82,1.78-1.2.59-.38,1.19-.76,1.81-1.14.59-.35,1.24-.7,1.86-1.06.48-.28.98-.55,1.49-.8-28.86,2.84-64.71.62-93.69,2.6.47-1.83,2.35-9.94,3.22-13.67,7.2-.19,20.86-.3,28.08-.41,2.21-.03,4.43-.05,6.64-.08,12.08-.14,24.19-.17,36.29-.15,10.55.03,49.25-.76,59.8-.73,11.47.05,18.19.68,23.96,1.7,4.37.77,14.74,3,20.39,5.49-.76-.17-1.54-.35-2.33-.5-.76-.17-1.54-.32-2.33-.47-.76-.15-1.54-.27-2.33-.42-.79-.12-1.57-.24-2.36-.36-.76-.12-1.55-.21-2.33-.31-.79-.12-1.57-.21-2.36-.28-.79-.09-1.58-.16-2.37-.23-.79-.07-1.58-.13-2.37-.17-.79-.07-1.58-.11-2.37-.14-.79-.01-1.58-.05-2.37-.06s-1.58-.02-2.38-.04-1.56,0-2.35.02c-.79.02-1.59.03-2.38.07-.77.02-1.56.06-2.36.1-.77.07-1.56.11-2.33.19-.79.04-1.56.11-2.36.21-.77.07-1.54.17-2.34.27-.77.07-1.54.2-2.31.3-.77.13-1.54.22-2.31.35-.77.13-1.54.28-2.29.41-.77.15-1.52.31-2.29.46-.75.15-1.52.33-2.26.49-.75.18-1.49.36-2.24.57-.75.18-1.49.36-2.24.57-.72.21-1.47.42-2.19.66-.72.21-1.47.45-2.19.68s-1.44.48-2.17.71c-.7.27-1.42.53-2.12.8-.72.26-1.42.53-2.12.82-.7.27-1.39.56-2.09.85s-1.37.59-2.04.91c-.7.29-1.37.62-2.04.94-14.75,7.11-29.49,17.89-33.49,32.39-1.57,5.8-.45,11.37,3.42,16.56,4.25,5.73,11.8,9.41,19.37,11.04,18.25,3.93,38.61-1.59,53.72-9.29,1.09-.55,2.19-1.15,3.26-1.75,1.07-.6,2.11-1.23,3.13-1.89,1.04-.66,2.03-1.35,3.02-2.04.99-.72,1.93-1.43,2.87-2.15.94-.75,1.85-1.52,2.76-2.3.89-.78,1.74-1.58,2.58-2.39.86-.83,1.67-1.67,2.45-2.53.81-.83,1.56-1.7,2.29-2.59.17-.21.33-.43.48-.66c13.49-9.25,27.24-18.22,41.28-26.9,14.58-9.12,28.87-18.63,44.66-26.29,6.35-3.07,18.64-8.37,26.13-8.35,1.88.01,3.83.41,5.25,1.57,1.36,1.13,1.88,2.83,1.86,4.35Z" style="fill: #787449;"/>
</svg>
