<?xml version="1.0" encoding="UTF-8"?>
<svg width="720" height="960" viewBox="0 0 720 960" fill="none" xmlns="http://www.w3.org/2000/svg">
  <rect width="720" height="960" rx="48" fill="#F4EBDD"/>
  <rect x="40" y="60" width="640" height="840" rx="40" fill="#787449"/>
  <rect x="60" y="86" width="600" height="760" rx="30" fill="#F7EFE0"/>
  <rect x="90" y="130" width="540" height="280" rx="24" fill="#EDE4D2"/>
  <rect x="90" y="448" width="540" height="40" rx="16" fill="#D3C6A4"/>
  <rect x="90" y="512" width="420" height="28" rx="14" fill="#D3C6A4"/>
  <rect x="90" y="560" width="480" height="28" rx="14" fill="#D3C6A4"/>
  <rect x="90" y="608" width="300" height="28" rx="14" fill="#D3C6A4"/>
  <rect x="120" y="180" width="480" height="36" rx="18" fill="#787449"/>
  <rect x="120" y="238" width="380" height="30" rx="15" fill="#787449"/>
  <rect x="120" y="290" width="460" height="24" rx="12" fill="#8A7B4D"/>
  <path d="M190 380C210 420 240 460 310 460C380 460 410 420 430 380" stroke="#603913" stroke-width="18" stroke-linecap="round"/>
  <path d="M170 430C200 480 240 500 310 500C380 500 420 480 450 430" stroke="#603913" stroke-width="12" stroke-linecap="round" opacity="0.7"/>
  <rect x="120" y="700" width="220" height="28" rx="14" fill="#787449"/>
  <rect x="120" y="750" width="330" height="22" rx="11" fill="#787449" opacity="0.85"/>
  <rect x="120" y="792" width="260" height="18" rx="9" fill="#787449" opacity="0.7"/>
  <text x="360" y="188" text-anchor="middle" fill="#FFFFFF" font-family="Inter, sans-serif" font-size="42" font-weight="700">Nog 'n</text>
  <text x="360" y="240" text-anchor="middle" fill="#FFFFFF" font-family="Inter, sans-serif" font-size="42" font-weight="700">Happie</text>
  <text x="360" y="330" text-anchor="middle" fill="#603913" font-family="Inter, sans-serif" font-size="24" font-weight="600">Cookbook Series</text>
  <rect x="50" y="912" width="620" height="20" rx="10" fill="#787449" opacity="0.2"/>
</svg>
