<?xml version="1.0" encoding="UTF-8"?>
<svg width="720" height="720" viewBox="0 0 720 720" fill="none" xmlns="http://www.w3.org/2000/svg">
  <rect width="720" height="720" rx="48" fill="#F4EBDD"/>
  <rect x="80" y="120" width="560" height="520" rx="40" fill="#F7EFE0" stroke="#787449" stroke-width="24"/>
  <rect x="120" y="160" width="480" height="80" rx="20" fill="#787449"/>
  <rect x="160" y="270" width="380" height="260" rx="28" fill="#EDE4D2"/>
  <rect x="180" y="300" width="320" height="32" rx="16" fill="#787449"/>
  <rect x="180" y="348" width="240" height="24" rx="12" fill="#787449" opacity="0.85"/>
  <rect x="180" y="388" width="280" height="24" rx="12" fill="#787449" opacity="0.85"/>
  <rect x="180" y="428" width="200" height="24" rx="12" fill="#787449" opacity="0.7"/>
  <rect x="140" y="520" width="440" height="40" rx="20" fill="#787449" opacity="0.4"/>
  <circle cx="220" cy="240" r="38" fill="#603913" opacity="0.9"/>
  <path d="M220 212L220 268" stroke="#F4EBDD" stroke-width="14" stroke-linecap="round"/>
  <path d="M188 240L252 240" stroke="#F4EBDD" stroke-width="14" stroke-linecap="round"/>
  <rect x="120" y="50" width="520" height="40" rx="20" fill="#787449" opacity="0.2"/>
  <rect x="120" y="620" width="520" height="40" rx="20" fill="#787449" opacity="0.2"/>
</svg>
